<svg width="48" height="48" viewBox="0 0 48 48" fill="none" xmlns="http://www.w3.org/2000/svg">
<g clip-path="url(#clip0_1289_16796)">
<rect width="48" height="48" rx="24" fill="#F2F2F2"/>
<path d="M23.9996 33.4551C15.4459 33.4551 8.51172 37.7889 8.51172 43.135L25.6936 56.9511L39.4875 43.135C39.4875 37.7889 32.5533 33.4551 23.9996 33.4551Z" fill="#B0B0B0"/>
<path d="M24.0005 28.9542C28.816 28.9542 32.7198 25.0504 32.7198 20.2349C32.7198 15.4194 28.816 11.5156 24.0005 11.5156C19.185 11.5156 15.2812 15.4194 15.2812 20.2349C15.2812 25.0504 19.185 28.9542 24.0005 28.9542Z" fill="#B0B0B0"/>
</g>
<defs>
<clipPath id="clip0_1289_16796">
<path d="M0 24C0 10.7452 10.7452 0 24 0C37.2548 0 48 10.7452 48 24C48 37.2548 37.2548 48 24 48C10.7452 48 0 37.2548 0 24Z" fill="white"/>
</clipPath>
</defs>
</svg>
