<svg width="18" height="18" viewBox="0 0 18 18" fill="none" xmlns="http://www.w3.org/2000/svg">
    <path fill-rule="evenodd" clip-rule="evenodd" d="M9 0C4.02944 0 0 4.02944 0 9C0 13.9706 4.02944 18 9 18C13.9706 18 18 13.9706 18 9C18 4.02944 13.9706 0 9 0ZM12.7657 7.43209C13.0781 7.11967 13.0781 6.61314 12.7657 6.30072C12.4533 5.9883 11.9467 5.9883 11.6343 6.30072L7.93333 10.0017L6.36569 8.43405C6.05327 8.12163 5.54673 8.12163 5.23431 8.43405C4.9219 8.74647 4.9219 9.25301 5.23431 9.56542L7.36765 11.6988C7.68007 12.0112 8.1866 12.0112 8.49902 11.6988L12.7657 7.43209Z" fill="#2B65EB"/>
</svg>