<svg width="20" height="20" viewBox="0 0 20 20" fill="none" xmlns="http://www.w3.org/2000/svg">
    <path fill-rule="evenodd" clip-rule="evenodd" d="M10 2.5C5.85786 2.5 2.5 5.85786 2.5 10C2.5 14.1421 5.85786 17.5 10 17.5C14.1421 17.5 17.5 14.1421 17.5 10C17.5 5.85786 14.1421 2.5 10 2.5ZM7.23709 7.23694C6.97674 7.49729 6.97674 7.9194 7.23709 8.17975L9.05752 10.0002L7.23742 11.8203C6.97707 12.0806 6.97707 12.5027 7.23742 12.7631C7.49777 13.0234 7.91988 13.0234 8.18023 12.7631L10.0003 10.943L11.8204 12.7631C12.0808 13.0234 12.5029 13.0234 12.7632 12.7631C13.0236 12.5027 13.0236 12.0806 12.7632 11.8203L10.9431 10.0002L12.7636 8.17975C13.0239 7.9194 13.0239 7.49729 12.7636 7.23694C12.5032 6.97659 12.0811 6.97659 11.8208 7.23694L10.0003 9.05736L8.1799 7.23694C7.91955 6.97659 7.49744 6.97659 7.23709 7.23694Z" fill="#DDDDDD"/>
</svg>