<svg width="90" height="90" viewBox="0 0 90 90" fill="none" xmlns="http://www.w3.org/2000/svg">
<rect width="90" height="90" fill="#111111"/>
<path d="M26.5341 44.731H26.789C27.2723 44.731 27.6235 44.6309 27.8425 44.4308C28.0615 44.2306 28.171 43.9097 28.171 43.4679C28.171 43.0601 28.0615 42.7637 27.8425 42.5787C27.6235 42.3899 27.2723 42.2955 26.789 42.2955H26.5341V44.731ZM24.75 49.2791V40.9871H26.789C27.8765 40.9871 28.6789 41.1948 29.1962 41.6101C29.7173 42.0255 29.9778 42.6674 29.9778 43.5359C29.9778 44.3402 29.7154 44.9707 29.1905 45.4276C28.6694 45.8845 27.9463 46.113 27.0212 46.113H26.5341V49.2791H24.75Z" fill="white"/>
<path d="M34.475 45.9261C34.4297 45.5749 34.3013 45.3106 34.0898 45.1331C33.8822 44.9519 33.5971 44.8612 33.2346 44.8612C32.8721 44.8612 32.5813 44.9519 32.3623 45.1331C32.1471 45.3106 32.0093 45.5749 31.9489 45.9261H34.475ZM36.0722 46.9003H31.8979C31.9621 47.3005 32.1075 47.6007 32.334 47.8008C32.5606 47.9972 32.8683 48.0953 33.2572 48.0953C33.5518 48.0953 33.8047 48.0387 34.0162 47.9254C34.2314 47.8121 34.4108 47.6403 34.5543 47.41L35.857 48.0614C35.5549 48.5485 35.1886 48.911 34.7582 49.1488C34.3277 49.3829 33.8161 49.5 33.2233 49.5C32.3246 49.5 31.6128 49.2319 31.0879 48.6957C30.5631 48.1595 30.3007 47.4383 30.3007 46.5321C30.3007 45.6598 30.5744 44.9424 31.1219 44.3798C31.6732 43.8172 32.3774 43.5359 33.2346 43.5359C34.1182 43.5359 34.8167 43.8002 35.3302 44.3288C35.8438 44.8537 36.1005 45.5711 36.1005 46.4811C36.1005 46.5302 36.0986 46.585 36.0949 46.6454C36.0911 46.702 36.0835 46.787 36.0722 46.9003Z" fill="white"/>
<path d="M38.8532 45.1501C39.0156 44.6101 39.2478 44.2061 39.5499 43.938C39.8557 43.6699 40.2333 43.5359 40.6827 43.5359C40.7846 43.5359 40.9526 43.5548 41.1868 43.5925C41.2321 43.6001 41.266 43.6057 41.2887 43.6095L41.0452 45.3427C40.9243 45.2936 40.8016 45.2577 40.677 45.2351C40.5562 45.2086 40.4278 45.1954 40.2918 45.1954C39.801 45.1954 39.4479 45.3219 39.2327 45.5749C39.0175 45.8241 38.9098 46.2432 38.9098 46.8323V49.2791H37.2956V43.7228H38.8872L38.8532 45.1501Z" fill="white"/>
<path d="M41.9401 41.4402C41.9401 41.1834 42.0326 40.9626 42.2176 40.7775C42.4026 40.5925 42.6235 40.5 42.8803 40.5C43.1408 40.5 43.3636 40.5925 43.5486 40.7775C43.7374 40.9588 43.8318 41.1797 43.8318 41.4402C43.8318 41.7008 43.7374 41.9235 43.5486 42.1086C43.3636 42.2936 43.1408 42.3861 42.8803 42.3861C42.6235 42.3861 42.4026 42.2917 42.2176 42.1029C42.0326 41.9141 41.9401 41.6932 41.9401 41.4402ZM42.0817 49.2791V43.7228H43.6902V49.2791H42.0817Z" fill="white"/>
<path d="M49.5297 46.5094C49.5297 46.0563 49.3976 45.6957 49.1333 45.4276C48.8689 45.1558 48.514 45.0198 48.0684 45.0198C47.6229 45.0198 47.2698 45.1539 47.0093 45.422C46.7487 45.6901 46.6185 46.0525 46.6185 46.5094C46.6185 46.9626 46.7487 47.325 47.0093 47.5969C47.2698 47.8688 47.6229 48.0047 48.0684 48.0047C48.5102 48.0047 48.8633 47.8688 49.1276 47.5969C49.3957 47.325 49.5297 46.9626 49.5297 46.5094ZM51.1723 46.5208C51.1723 47.3741 50.8796 48.084 50.2944 48.6504C49.7129 49.2168 48.9747 49.5 48.0798 49.5C47.1773 49.5 46.4334 49.2168 45.8482 48.6504C45.2629 48.084 44.9703 47.3741 44.9703 46.5208C44.9703 45.6712 45.2648 44.9613 45.8538 44.3911C46.4429 43.821 47.1849 43.5359 48.0798 43.5359C48.9784 43.5359 49.7185 43.8172 50.3 44.3798C50.8815 44.9424 51.1723 45.6561 51.1723 46.5208Z" fill="white"/>
<path d="M54.3101 47.7838H55.2956C56.2245 47.7838 56.9004 47.5724 57.3233 47.1495C57.75 46.7266 57.9633 46.0563 57.9633 45.1388C57.9633 44.225 57.75 43.5566 57.3233 43.1337C56.9004 42.707 56.2245 42.4937 55.2956 42.4937H54.3101V47.7838ZM52.5373 49.2791V40.9871H54.7972C55.6883 40.9871 56.3906 41.0494 56.9042 41.174C57.4177 41.2986 57.8689 41.5063 58.2579 41.797C58.7601 42.1709 59.1395 42.6429 59.3963 43.213C59.6569 43.7794 59.7871 44.4251 59.7871 45.1501C59.7871 45.8864 59.655 46.5396 59.3906 47.1098C59.1263 47.6762 58.7393 48.1444 58.2295 48.5145C57.8519 48.7863 57.4309 48.9827 56.9665 49.1035C56.5058 49.2206 55.8299 49.2791 54.9388 49.2791H54.3101H52.5373Z" fill="white"/>
<path d="M62.149 49.2791H60.2402L62.2113 46.4585L60.3422 43.7228H62.3586L62.908 44.7536C62.9759 44.8858 63.0363 45.0217 63.0892 45.1614C63.1458 45.3011 63.1968 45.4484 63.2421 45.6032C63.2837 45.4597 63.3346 45.3181 63.3951 45.1784C63.4555 45.0349 63.5291 44.8896 63.6159 44.7423L64.205 43.7228H66.1194L64.2163 46.4245L66.2214 49.2791H64.2163L63.565 48.1407C63.4895 47.9972 63.4215 47.8556 63.3611 47.7159C63.3044 47.5724 63.2572 47.4289 63.2195 47.2854C63.1817 47.4327 63.1326 47.5761 63.0722 47.7159C63.0118 47.8518 62.9325 47.9972 62.8343 48.152L62.149 49.2791Z" fill="white"/>
</svg>
