<svg width="93" height="20" viewBox="0 0 93 20" fill="none" xmlns="http://www.w3.org/2000/svg">
<path d="M3.96476 9.40214H4.53115C5.6052 9.40214 6.38557 9.17978 6.87225 8.73505C7.35893 8.29033 7.60227 7.57709 7.60227 6.59534C7.60227 5.68911 7.35893 5.03042 6.87225 4.61926C6.38557 4.19971 5.6052 3.98993 4.53115 3.98993H3.96476V9.40214ZM0 19.5091V1.08244H4.53115C6.94777 1.08244 8.73086 1.54395 9.88043 2.46696C11.0384 3.38997 11.6174 4.81645 11.6174 6.74638C11.6174 8.53367 11.0342 9.93497 9.86784 10.9503C8.70988 11.9656 7.103 12.4733 5.0472 12.4733H3.96476V19.5091H0Z" fill="#111111"/>
<path d="M21.6111 12.0579C21.5104 11.2775 21.2251 10.6902 20.7552 10.2958C20.2937 9.89301 19.6602 9.69163 18.8546 9.69163C18.0491 9.69163 17.403 9.89301 16.9163 10.2958C16.438 10.6902 16.1317 11.2775 15.9975 12.0579H21.6111ZM25.1605 14.2228H15.8842C16.0268 15.1122 16.3499 15.7793 16.8534 16.224C17.3568 16.6604 18.0407 16.8785 18.905 16.8785C19.5595 16.8785 20.1217 16.7527 20.5916 16.5009C21.0699 16.2492 21.4684 15.8674 21.7873 15.3556L24.6822 16.803C24.0109 17.8855 23.197 18.691 22.2404 19.2196C21.2838 19.7399 20.1468 20 18.8295 20C16.8324 20 15.2507 19.4042 14.0843 18.2127C12.918 17.0212 12.3348 15.4185 12.3348 13.4047C12.3348 11.4663 12.9431 9.87204 14.1598 8.62177C15.3849 7.37151 16.9499 6.74638 18.8546 6.74638C20.8181 6.74638 22.3705 7.33375 23.5116 8.5085C24.6528 9.67485 25.2234 11.2691 25.2234 13.2914C25.2234 13.4005 25.2192 13.5221 25.2108 13.6564C25.2024 13.7823 25.1856 13.9711 25.1605 14.2228Z" fill="#111111"/>
<path d="M31.3405 10.3335C31.7013 9.13363 32.2173 8.23579 32.8886 7.64003C33.5683 7.04426 34.4074 6.74638 35.4059 6.74638C35.6325 6.74638 36.0059 6.78834 36.5261 6.87225C36.6268 6.88903 36.7023 6.90162 36.7527 6.91001L36.2115 10.7615C35.9429 10.6524 35.6702 10.5727 35.3933 10.5223C35.1248 10.4636 34.8395 10.4342 34.5374 10.4342C33.4466 10.4342 32.662 10.7153 32.1838 11.2775C31.7055 11.8313 31.4663 12.7627 31.4663 14.0717V19.5091H27.8792V7.16174H31.416L31.3405 10.3335Z" fill="#111111"/>
<path d="M38.2001 2.08936C38.2001 1.51877 38.4057 1.0279 38.8169 0.61674C39.228 0.20558 39.7189 0 40.2895 0C40.8685 0 41.3635 0.20558 41.7747 0.61674C42.1943 1.01951 42.404 1.51038 42.404 2.08936C42.404 2.66834 42.1943 3.16342 41.7747 3.57458C41.3635 3.98574 40.8685 4.19132 40.2895 4.19132C39.7189 4.19132 39.228 3.98154 38.8169 3.56199C38.4057 3.14244 38.2001 2.65156 38.2001 2.08936ZM38.5148 19.5091V7.16174H42.0894V19.5091H38.5148Z" fill="#111111"/>
<path d="M55.0661 13.3543C55.0661 12.3474 54.7724 11.546 54.185 10.9503C53.5976 10.3461 52.8089 10.0441 51.8188 10.0441C50.8286 10.0441 50.044 10.3419 49.4651 10.9377C48.8861 11.5335 48.5966 12.339 48.5966 13.3543C48.5966 14.3612 48.8861 15.1668 49.4651 15.7709C50.044 16.3751 50.8286 16.6772 51.8188 16.6772C52.8005 16.6772 53.5851 16.3751 54.1724 15.7709C54.7682 15.1668 55.0661 14.3612 55.0661 13.3543ZM58.7162 13.3795C58.7162 15.2759 58.0659 16.8534 56.7653 18.112C55.473 19.3707 53.8326 20 51.8439 20C49.8385 20 48.1854 19.3707 46.8848 18.112C45.5842 16.8534 44.9339 15.2759 44.9339 13.3795C44.9339 11.4915 45.5884 9.91399 46.8974 8.64695C48.2064 7.3799 49.8553 6.74638 51.8439 6.74638C53.841 6.74638 55.4856 7.37151 56.7778 8.62177C58.0701 9.87204 58.7162 11.4579 58.7162 13.3795Z" fill="#111111"/>
<path d="M65.6891 16.1863H67.8792C69.9434 16.1863 71.4454 15.7164 72.3851 14.7766C73.3333 13.8368 73.8074 12.3474 73.8074 10.3084C73.8074 8.27774 73.3333 6.79253 72.3851 5.85274C71.4454 4.90455 69.9434 4.43046 67.8792 4.43046H65.6891V16.1863ZM61.7495 19.5091V1.08244H66.7716C68.7518 1.08244 70.3126 1.22089 71.4537 1.4978C72.5949 1.7747 73.5976 2.23621 74.4619 2.88232C75.5779 3.71303 76.4212 4.7619 76.9918 6.02895C77.5708 7.2876 77.8603 8.72247 77.8603 10.3335C77.8603 11.9698 77.5666 13.4214 76.9792 14.6885C76.3919 15.9471 75.5318 16.9876 74.399 17.8099C73.5599 18.4141 72.6243 18.8504 71.5922 19.1189C70.5685 19.3791 69.0665 19.5091 67.0862 19.5091H65.6891H61.7495Z" fill="#111111"/>
<path d="M83.1089 19.5091H78.8672L83.2473 13.241L79.0938 7.16174H83.5746L84.7955 9.45249C84.9465 9.74617 85.0808 10.0482 85.1982 10.3587C85.3241 10.6692 85.4374 10.9964 85.5381 11.3405C85.6304 11.0216 85.7437 10.7069 85.8779 10.3965C86.0122 10.0776 86.1758 9.75456 86.3688 9.42731L87.6778 7.16174H91.932L87.703 13.1655L92.1586 19.5091H87.703L86.2555 16.9792C86.0877 16.6604 85.9366 16.3457 85.8024 16.0352C85.6765 15.7164 85.5716 15.3975 85.4877 15.0787C85.4038 15.4059 85.2947 15.7248 85.1605 16.0352C85.0262 16.3373 84.85 16.6604 84.6318 17.0044L83.1089 19.5091Z" fill="#111111"/>
</svg>
