<svg width="64" height="15" viewBox="0 0 64 15" fill="none" xmlns="http://www.w3.org/2000/svg">
<path d="M2.75335 7.08547H3.14668C3.89256 7.08547 4.43449 6.9313 4.77247 6.62295C5.11044 6.31461 5.27943 5.8201 5.27943 5.13942C5.27943 4.5111 5.11044 4.05441 4.77247 3.76934C4.43449 3.47845 3.89256 3.333 3.14668 3.333H2.75335V7.08547ZM0 14.093V1.31714H3.14668C4.82491 1.31714 6.06319 1.63712 6.86151 2.27708C7.66567 2.91703 8.06774 3.90605 8.06774 5.24414C8.06774 6.48333 7.66275 7.4549 6.85277 8.15885C6.04862 8.8628 4.93271 9.21477 3.50505 9.21477H2.75335V14.093H0Z" fill="white"/>
<path d="M15.0079 8.92679C14.938 8.38574 14.7399 7.9785 14.4135 7.70506C14.0931 7.42581 13.6531 7.28618 13.0937 7.28618C12.5343 7.28618 12.0856 7.42581 11.7476 7.70506C11.4155 7.9785 11.2028 8.38574 11.1095 8.92679H15.0079ZM17.4728 10.4278H11.0309C11.1299 11.0445 11.3543 11.507 11.7039 11.8153C12.0535 12.1178 12.5285 12.2691 13.1287 12.2691C13.5832 12.2691 13.9736 12.1818 14.2999 12.0073C14.6321 11.8328 14.9089 11.5681 15.1303 11.2132L17.1407 12.2167C16.6745 12.9672 16.1093 13.5257 15.445 13.8923C14.7807 14.253 13.9911 14.4333 13.0762 14.4333C11.6893 14.4333 10.5909 14.0203 9.78093 13.1941C8.97096 12.368 8.56597 11.2568 8.56597 9.86055C8.56597 8.51664 8.98844 7.41126 9.83338 6.54441C10.6841 5.67757 11.7709 5.24414 13.0937 5.24414C14.4573 5.24414 15.5353 5.65139 16.3278 6.46587C17.1203 7.27455 17.5165 8.37992 17.5165 9.78201C17.5165 9.85764 17.5136 9.94199 17.5078 10.0351C17.502 10.1223 17.4903 10.2532 17.4728 10.4278Z" fill="white"/>
<path d="M21.7645 7.73124C22.0151 6.8993 22.3735 6.2768 22.8397 5.86373C23.3117 5.45067 23.8944 5.24414 24.5878 5.24414C24.7452 5.24414 25.0045 5.27323 25.3657 5.33141C25.4357 5.34304 25.4881 5.35177 25.5231 5.35759L25.1472 8.02795C24.9608 7.95232 24.7714 7.89705 24.5791 7.86214C24.3926 7.82142 24.1945 7.80105 23.9847 7.80105C23.2272 7.80105 22.6823 7.99595 22.3502 8.38574C22.018 8.76971 21.852 9.41549 21.852 10.3231V14.093H19.3608V5.53212H21.817L21.7645 7.73124Z" fill="white"/>
<path d="M26.5283 2.01528C26.5283 1.61967 26.671 1.27933 26.9566 0.994257C27.2421 0.709186 27.583 0.56665 27.9792 0.56665C28.3813 0.56665 28.7251 0.709186 29.0107 0.994257C29.302 1.27351 29.4477 1.61385 29.4477 2.01528C29.4477 2.4167 29.302 2.75995 29.0107 3.04502C28.7251 3.33009 28.3813 3.47263 27.9792 3.47263C27.583 3.47263 27.2421 3.32718 26.9566 3.0363C26.671 2.74541 26.5283 2.40507 26.5283 2.01528ZM26.7468 14.093V5.53212H29.2292V14.093H26.7468Z" fill="white"/>
<path d="M38.2409 9.82564C38.2409 9.12751 38.037 8.57191 37.6291 8.15885C37.2212 7.73997 36.6734 7.53053 35.9858 7.53053C35.2982 7.53053 34.7533 7.73706 34.3513 8.15012C33.9492 8.56318 33.7482 9.12169 33.7482 9.82564C33.7482 10.5238 33.9492 11.0823 34.3513 11.5012C34.7533 11.92 35.2982 12.1295 35.9858 12.1295C36.6676 12.1295 37.2124 11.92 37.6203 11.5012C38.0341 11.0823 38.2409 10.5238 38.2409 9.82564ZM40.7757 9.84309C40.7757 11.1579 40.3241 12.2517 39.4209 13.1243C38.5235 13.997 37.3843 14.4333 36.0033 14.4333C34.6106 14.4333 33.4626 13.997 32.5594 13.1243C31.6562 12.2517 31.2046 11.1579 31.2046 9.84309C31.2046 8.53409 31.6591 7.44035 32.5682 6.56187C33.4772 5.68338 34.6222 5.24414 36.0033 5.24414C37.3901 5.24414 38.5323 5.67757 39.4297 6.54441C40.3271 7.41126 40.7757 8.51082 40.7757 9.84309Z" fill="white"/>
<path d="M45.6181 11.7891H47.139C48.5725 11.7891 49.6156 11.4633 50.2682 10.8118C50.9267 10.1602 51.2559 9.12751 51.2559 7.71379C51.2559 6.30589 50.9267 5.27614 50.2682 4.62455C49.6156 3.96714 48.5725 3.63844 47.139 3.63844H45.6181V11.7891ZM42.8823 14.093V1.31714H46.3698C47.7451 1.31714 48.8289 1.41314 49.6214 1.60512C50.4139 1.79711 51.1103 2.11709 51.7105 2.56506C52.4855 3.14102 53.0711 3.86824 53.4674 4.74672C53.8694 5.61939 54.0705 6.61423 54.0705 7.73124C54.0705 8.86571 53.8665 9.87218 53.4586 10.7507C53.0507 11.6233 52.4534 12.3447 51.6668 12.9149C51.084 13.3338 50.4343 13.6363 49.7176 13.8225C49.0066 14.0028 47.9636 14.093 46.5884 14.093H45.6181H42.8823Z" fill="white"/>
<path d="M57.7154 14.093H54.7697L57.8115 9.7471L54.9271 5.53212H58.0388L58.8866 7.12037C58.9915 7.324 59.0848 7.53344 59.1664 7.74869C59.2538 7.96395 59.3324 8.19084 59.4024 8.42937C59.4664 8.2083 59.5451 7.99013 59.6384 7.77487C59.7316 7.5538 59.8452 7.32981 59.9792 7.10292L60.8883 5.53212H63.8427L60.9058 9.69474L64 14.093H60.9058L59.9006 12.3389C59.784 12.1178 59.6791 11.8997 59.5859 11.6844C59.4985 11.4633 59.4257 11.2423 59.3674 11.0212C59.3091 11.2481 59.2334 11.4692 59.1401 11.6844C59.0469 11.8939 58.9245 12.1178 58.773 12.3564L57.7154 14.093Z" fill="white"/>
</svg>
