<svg width="49" height="40" viewBox="0 0 49 40" fill="none" xmlns="http://www.w3.org/2000/svg">
<path d="M15.7617 39.5013C33.8749 39.5013 43.7821 24.4946 43.7821 11.4808C43.7821 11.0546 43.7821 10.6302 43.7533 10.2078C45.6807 8.81375 47.3444 7.08761 48.6666 5.11024C46.8694 5.90704 44.9627 6.42935 43.0103 6.65968C45.0663 5.42905 46.6049 3.49324 47.3399 1.21264C45.4068 2.35985 43.2919 3.16829 41.0865 3.60304C39.6017 2.02419 37.6379 0.978719 35.499 0.628405C33.3602 0.278091 31.1655 0.642465 29.2546 1.66514C27.3437 2.68782 25.8231 4.31178 24.9281 6.28573C24.0331 8.25968 23.8137 10.4736 24.3037 12.5848C20.3884 12.3884 16.5581 11.3709 13.0615 9.59825C9.56493 7.82563 6.48015 5.33756 4.00743 2.29552C2.74808 4.46351 2.36237 7.02997 2.92883 9.47236C3.49528 11.9147 4.97131 14.0494 7.05639 15.4418C5.48909 15.3958 3.95592 14.973 2.58663 14.2091V14.3339C2.58725 16.6076 3.37433 18.8111 4.81437 20.5707C6.25441 22.3302 8.25875 23.5375 10.4874 23.9877C9.03759 24.3832 7.51638 24.441 6.04071 24.1566C6.67026 26.1133 7.89548 27.8243 9.5451 29.0505C11.1947 30.2767 13.1863 30.9568 15.2413 30.9957C13.1995 32.6006 10.8613 33.7873 8.36037 34.4877C5.85949 35.1881 3.24506 35.3886 0.666626 35.0776C5.17029 37.9676 10.4105 39.5006 15.7617 39.4936" fill="#1DA1F2"/>
</svg>
